# xmcd
#
# Track frame offsets:
#	150
#	15385
#	32501
#	42002
#	53039
#	62673
#	65810
#	76414
#	81877
#	94146
#	112696
#	124463
#	135895
#	151285
#	164594
#	175680
#	192289
#	208518
#	224498
#	241857
#	249293
#	257164
#	270362
#	285256
#	299968
#	318122
#
# Disc length: 4364 seconds
#
# Revision: 0
# Processed by: cddbd v1.5.1PL2 Copyright (c) Steve Scherf et al.
# Submitted via: EasyCDDAExtractor 8.1.2.3
#
DISCID=65110a1a
DTITLE=Kamelancien - Ghettographie
DYEAR=2006
DGENRE=Rap
TTITLE0=Intro
TTITLE1=Crise cardiaque
TTITLE2=Rap 2 Ben Laden
TTITLE3=L'ancien
TTITLE4=Code 187
TTITLE5=A quoi bon sert
TTITLE6=La Hass feat. Intouchable
TTITLE7=Remballe
TTITLE8=Sans entrainement
TTITLE9=Le rap sera jamais mort
TTITLE10=Pécho la mixtape
TTITLE11=Nous on est pas à fond dedans feat. Moha le vagabond
TTITLE12=Ghettographie feat. Papis Eries
TTITLE13=Monocrom L'ancien feat. Monocrom
TTITLE14=Pump it up
TTITLE15=Payer e taro
TTITLE16=Fais avec
TTITLE17=Quelques grammes de tendresse
TTITLE18=Regarde moi feat. Ahmed Sultan
TTITLE19=Pourquoi feat. Naturalman
TTITLE20=Dans la merde
TTITLE21=T'es pas au courant feat. Minos
TTITLE22=Surin
TTITLE23=Homeless
TTITLE24=L'Afrique en France feat. Sang neuf
TTITLE25=On est la feat. Sang neuf
EXTD=
EXTT0=
EXTT1=
EXTT2=
EXTT3=
EXTT4=
EXTT5=
EXTT6=
EXTT7=
EXTT8=
EXTT9=
EXTT10=
EXTT11=
EXTT12=
EXTT13=
EXTT14=
EXTT15=
EXTT16=
EXTT17=
EXTT18=
EXTT19=
EXTT20=
EXTT21=
EXTT22=
EXTT23=
EXTT24=
EXTT25=
PLAYORDER=
